<?xml version="1.0"?><svg width="640" height="480" xmlns="http://www.w3.org/2000/svg">

 <metadata id="metadata7">image/svg+xml</metadata>
 <g>
  <g id="g4808">
   <path d="m502.973114,119.486923c-50.129578,0.32943 -98.438354,15.737442 -147.642487,21.898331c-20.536774,2.571442 -41.702484,3.202316 -62.273682,0.81105c-27.350037,-3.17926 -53.830399,-11.624954 -81.16217,-15.409943c-24.425781,-3.382561 -49.158783,-6.913872 -73.738754,-7.056137c-42.95414,-0.248596 -84.499355,12.97554 -126.609594,20.114059c0,12.113052 -2.501713,27.659882 3.794145,36.172806c6.493884,8.780624 17.448819,16.811432 20.290582,28.711121c6.738998,28.219955 16.306194,55.883209 28.53867,82.40274c5.944611,12.887512 17.164986,21.872925 29.693382,28.062256c30.169785,14.90448 65.878876,17.096191 98.978363,12.408997c47.134872,-6.674683 72.705307,-41.450867 92.214645,-81.18602c7.302582,-16.15242 8.117035,-34.79361 17.733643,-49.555176c5.711884,-8.768021 18.976166,-5.077423 28.455994,-5.109589c9.479858,-0.032166 17.513855,15.471725 20.455627,25.791382c10.411774,36.521851 27.772125,75.269699 62.273956,94.406235c51.522217,28.576904 132.690399,23.231384 166.118378,-28.305603c13.082275,-20.169708 16.696167,-44.643036 23.259827,-67.47934c3.99585,-13.902283 7.56488,-30.476196 21.775269,-38.1194c5.734985,-3.084564 1.710388,-15.393127 2.556885,-22.547165c0.922302,-7.795807 2.700623,-14.689728 -8.578125,-16.220978c-19.673523,-2.671112 -38.757019,-10.795044 -58.892029,-13.544548c-19.080872,-2.605576 -37.775757,-6.373001 -57.242523,-6.245079zm-331.411911,12.976807c14.229614,-0.08905 28.39949,0.935135 42.230682,3.811905c82.408035,17.140015 84.074356,50.525635 50.148972,119.548798c-27.64415,56.243317 -84.908905,70.335754 -142.611076,56.854492c-26.59906,-6.214264 -44.787628,-24.471802 -53.365829,-49.473999c-9.053566,-26.387863 -15.90205,-54.42482 -14.351807,-82.159348c2.076122,-37.140366 44.798431,-42.360077 75.388405,-45.743164c14.036911,-1.552505 28.330902,-2.749756 42.560654,-2.838684zm300.893784,0c14.229736,0.089005 28.523712,1.286179 42.560577,2.838684c30.589966,3.383087 73.312439,8.602798 75.388245,45.743164c1.550476,27.734528 -5.298096,55.771484 -14.351746,82.159348c-8.578125,25.002197 -26.766907,43.259735 -53.365845,49.473999c-57.702087,13.481262 -114.96701,-0.611176 -142.610962,-56.854492c-33.925385,-69.023163 -32.259033,-102.408691 50.148956,-119.548798c13.83136,-2.87677 28.000916,-3.900879 42.230774,-3.811905z" id="path2830" stroke-width="1px" stroke="#000000" fill="#000000"/>
   <path d="m128.989319,135.330276c28.073792,-3.104889 57.124741,-4.785065 84.787094,0.96843c82.408371,17.139999 84.069992,50.529587 50.144547,119.552811c-27.644104,56.24324 -84.878891,70.339462 -142.5811,56.858475c-26.598892,-6.214355 -44.798149,-24.536591 -53.376335,-49.538788c-9.053688,-26.387863 -15.93972,-54.409042 -14.389492,-82.143539c2.076145,-37.140335 44.825306,-42.314102 75.415287,-45.697327l0,-0.000061z" id="path2832" stroke-width="1px" stroke="#000000" fill="#7f7f7f" opacity="0.85"/>
   <path d="m514.999023,135.330276c-28.073608,-3.104889 -57.124542,-4.785065 -84.786926,0.96843c-82.408142,17.139999 -84.070129,50.529587 -50.144714,119.552811c27.644104,56.24324 84.879059,70.339462 142.581116,56.858475c26.598999,-6.214355 44.798218,-24.536591 53.376465,-49.538788c9.05365,-26.387863 15.93988,-54.409042 14.389404,-82.143539c-2.075867,-37.140335 -44.825378,-42.314102 -75.415344,-45.697327l0,-0.000061z" id="path2832-1" stroke-width="1px" stroke="#000000" fill="#7f7f7f" opacity="0.85"/>
  </g>
  <title>Layer 1</title>
 </g>
</svg>